<svg width="24" height="24" viewBox="0 0 24 24" fill="none" xmlns="http://www.w3.org/2000/svg">
<g clip-path="url(#clip0_2021_2977)">
<path fill-rule="evenodd" clip-rule="evenodd" d="M13.4994 10.0004H20.4991C21.3281 10.0004 21.9991 9.32939 21.9991 8.50035V5.00021C21.9991 2.24309 19.7562 0 16.9993 0H13.4994C12.6705 0 11.9995 0.671028 11.9995 1.50006V8.50035C11.9995 9.32939 12.6705 10.0004 13.4994 10.0004ZM16.9993 3.00012H14.9994V7.00029H18.9992V5.00021C18.9992 3.89716 18.1022 3.00012 16.9993 3.00012Z" fill="#5FCCFF"/>
<path fill-rule="evenodd" clip-rule="evenodd" d="M8.49965 0H4.99979C2.24291 0 0 2.24309 0 5.00021V8.50035C0 9.32939 0.670972 10.0004 1.49994 10.0004H8.49965C9.32861 10.0004 9.99958 9.32939 9.99958 8.50035V1.50006C9.99958 0.671028 9.32861 0 8.49965 0ZM2.99988 7.00029V5.00021C2.99988 3.89716 3.89684 3.00012 4.99979 3.00012H6.99971V7.00029H2.99988ZM23.56 21.4399L21.4151 19.2948C21.7761 18.6038 21.9991 17.8317 21.9991 16.9997C21.9991 14.2426 19.7562 11.9995 16.9993 11.9995C14.2424 11.9995 11.9995 14.2426 11.9995 16.9997C11.9995 19.7568 14.2424 21.9999 16.9993 21.9999C17.8303 21.9999 18.6032 21.7769 19.2942 21.4159L21.4391 23.561C21.7321 23.854 22.1161 24 22.5001 24C22.884 24 23.268 23.854 23.561 23.561C24.147 22.976 24.146 22.0249 23.56 21.4399ZM16.9993 19.0008C15.8963 19.0008 14.9994 18.1038 14.9994 17.0007C14.9994 15.8977 15.8963 15.0006 16.9993 15.0006C18.1022 15.0006 18.9992 15.8977 18.9992 17.0007C18.9992 18.1038 18.1022 19.0008 16.9993 19.0008Z" fill="black"/>
<path fill-rule="evenodd" clip-rule="evenodd" d="M8.49965 12.0005H1.49994C0.670972 12.0005 0 12.6715 0 13.5006V17.0007C0 19.7578 2.24291 22.0009 4.99979 22.0009H8.49965C9.32861 22.0009 9.99958 21.3299 9.99958 20.5009V13.5006C9.99958 12.6715 9.32861 12.0005 8.49965 12.0005ZM4.99979 19.0008H6.99971V15.0006H2.99988V17.0007C2.99988 18.1038 3.89684 19.0008 4.99979 19.0008Z" fill="#24D75D"/>
</g>
<defs>
<clipPath id="clip0_2021_2977">
<rect width="24" height="24" fill="white"/>
</clipPath>
</defs>
</svg>
