<svg width="20" height="20" viewBox="0 0 20 20" fill="none" xmlns="http://www.w3.org/2000/svg">
<g clip-path="url(#clip0_2098_1536)">
<path fill-rule="evenodd" clip-rule="evenodd" d="M15 1.66667H15.4167C17.9433 1.66667 20 3.7225 20 6.25V15.4167C20 17.9442 17.9433 20 15.4167 20H4.58333C2.05667 20 0 17.9442 0 15.4167V6.25C0 3.7225 2.05667 1.66667 4.58333 1.66667H5V1.25C5 0.559167 5.56 0 6.25 0C6.94 0 7.5 0.559167 7.5 1.25V1.66667H12.5V1.25C12.5 0.559167 13.06 0 13.75 0C14.44 0 15 0.559167 15 1.25V1.66667ZM4.58333 17.5H15.4167C16.5658 17.5 17.5 16.565 17.5 15.4167V7.5H2.5V15.4167C2.5 16.565 3.43417 17.5 4.58333 17.5Z" fill="black"/>
<path d="M8.33333 10.4167V12.0833C8.33333 12.7733 7.77333 13.3333 7.08333 13.3333H5.41667C4.72667 13.3333 4.16667 12.7733 4.16667 12.0833V10.4167C4.16667 9.72667 4.72667 9.16667 5.41667 9.16667H7.08333C7.77333 9.16667 8.33333 9.72667 8.33333 10.4167Z" fill="#5FCCFF"/>
</g>
<defs>
<clipPath id="clip0_2098_1536">
<rect width="20" height="20" fill="white"/>
</clipPath>
</defs>
</svg>
