<svg width="82" height="85" viewBox="0 0 82 85" fill="none" xmlns="http://www.w3.org/2000/svg">
<path d="M37.516 1.00008L1.42538 19.8269L39.5157 38.3797L74.4141 21.6738L74.3947 20.2657L37.516 1.00008Z" fill="#E9E9E9" stroke="black" stroke-width="0.7" stroke-linecap="round" stroke-linejoin="round"/>
<path d="M1.88313 19.8776L37.4914 38.0667L37.8313 76.7173L36.2129 77.4887L1 60.2625L1.88313 19.8776Z" fill="#292929" stroke="black" stroke-width="0.7" stroke-linecap="round" stroke-linejoin="round"/>
<path d="M73.9975 19.8776L38.3892 38.0667L38.0493 76.7173L39.6678 77.4887L74.8806 60.2625L73.9975 19.8776Z" fill="#788778" stroke="black" stroke-width="0.7" stroke-linecap="round" stroke-linejoin="round"/>
<path d="M38.5157 64.0735L58.8919 52.5103L37.3866 41.1154L17.6835 51.376L17.6945 52.2408L38.5157 64.0735Z" fill="#E9E9E9" stroke="black" stroke-width="0.7" stroke-linecap="round" stroke-linejoin="round"/>
<path d="M58.6333 52.4787L38.5294 41.3073L38.3375 17.5686L39.2513 17.0948L59.1319 27.6749L58.6333 52.4787Z" fill="#292929" stroke="black" stroke-width="0.7" stroke-linecap="round" stroke-linejoin="round"/>
<path d="M17.9185 52.4787L38.0225 41.3073L38.2143 17.5686L37.3006 17.0948L17.4199 27.6749L17.9185 52.4787Z" fill="#788778" stroke="black" stroke-width="0.7" stroke-linecap="round" stroke-linejoin="round"/>
<path d="M38.1238 25.7834L25.1856 33.0702L38.8407 40.2509L51.3515 33.785L51.3447 33.24L38.1238 25.7834Z" fill="#37C8AB" stroke="black" stroke-width="0.7" stroke-linecap="round" stroke-linejoin="round"/>
<path d="M25.3498 33.0885L38.1151 40.1284L38.2369 55.0878L37.6567 55.3863L25.0332 48.7191L25.3498 33.0885Z" fill="#0B2822" stroke="black" stroke-width="0.7" stroke-linecap="round" stroke-linejoin="round"/>
<path d="M51.2023 33.0885L38.437 40.1284L38.3151 55.0878L38.8953 55.3863L51.5189 48.7191L51.2023 33.0885Z" fill="#165044" stroke="black" stroke-width="0.7" stroke-linecap="round" stroke-linejoin="round"/>
<path d="M60.2688 49.7838L60.2064 49.7998C60.1889 49.8221 60.1803 49.8326 60.1561 49.8634C60.1542 49.8653 60.1523 49.8673 60.1505 49.8703C60.1895 49.8414 60.2294 49.8121 60.2688 49.7838ZM59.6525 50.2804C59.5426 50.3262 59.4379 50.3416 59.3427 50.3308C59.2332 50.5568 59.0888 50.7903 58.9056 51.0271C58.962 50.9654 59.0188 50.9038 59.0762 50.8433C59.1747 50.7396 59.2748 50.6379 59.3766 50.5387C59.4671 50.4505 59.5591 50.3643 59.6525 50.2804ZM57.6083 52.6057C57.5578 52.6587 57.5074 52.7085 57.4571 52.7555C57.3115 52.9116 57.164 53.0656 57.0239 53.2294C56.8737 53.405 56.7238 53.5216 56.582 53.5897C56.4428 53.8503 56.2764 54.0772 56.0894 54.2776C56.0682 54.3516 56.041 54.4256 56.0077 54.4992C56.024 54.4842 56.0402 54.47 56.0566 54.4547C56.1307 54.3846 56.2054 54.3101 56.2805 54.2312C56.3556 54.1523 56.4312 54.069 56.5074 53.9822C56.5836 53.8954 56.6605 53.805 56.738 53.7114C56.8156 53.6179 56.8936 53.5213 56.9726 53.4221C57.1306 53.2238 57.292 53.0152 57.4573 52.801C57.507 52.7366 57.5578 52.671 57.6083 52.6057Z" fill="white" stroke="black" stroke-width="0.7" stroke-linecap="round" stroke-linejoin="round"/>
<path d="M63.77 41.9692C63.6849 41.9688 63.5999 41.9712 63.5152 41.9781C63.4305 41.9841 63.346 41.9933 63.2617 42.006C63.1773 42.0187 63.0932 42.0348 63.0094 42.0546C62.9255 42.0743 62.842 42.0976 62.7587 42.1247C62.6753 42.1519 62.592 42.1827 62.5091 42.2175C62.4262 42.2524 62.3437 42.2912 62.2614 42.3341C62.179 42.377 62.0968 42.4239 62.015 42.4752C61.9332 42.5265 61.8518 42.5819 61.7705 42.6419C61.6893 42.7019 61.6083 42.7665 61.5277 42.8356C61.4471 42.9047 61.3667 42.9784 61.2866 43.0569C61.2066 43.1353 61.1269 43.2188 61.0475 43.307C60.9904 43.3705 60.9337 43.4397 60.877 43.5084L60.658 44.4416L61.0341 45.2833L60.4701 46.0047L59.8118 46.7264L59.3417 48.1692H59.7285C59.8996 48.0176 60.0698 47.9472 60.2215 47.9415C60.6231 47.9265 60.8958 48.3645 60.7168 48.9478L60.752 49.0109L60.5151 49.6172C60.5725 49.58 60.629 49.5405 60.6875 49.5056C60.8047 49.4356 60.9241 49.3704 61.0457 49.3105C61.1065 49.2806 61.1679 49.2519 61.2299 49.2247C61.2918 49.1975 61.3543 49.1718 61.4174 49.1474C61.4804 49.1231 61.5441 49.1005 61.6084 49.0791C61.6727 49.0579 61.7375 49.038 61.803 49.0198C61.8684 49.0017 61.9346 48.9851 62.0013 48.9705C62.068 48.9556 62.1352 48.9425 62.2032 48.9311C62.2711 48.9198 62.3398 48.9101 62.409 48.9022C62.4783 48.8943 62.5482 48.8884 62.6188 48.8844C62.6893 48.8794 62.7606 48.8784 62.8324 48.8774C62.9043 48.8772 62.977 48.8794 63.0503 48.8824C63.1235 48.8864 63.1974 48.8923 63.2721 48.8997C63.3467 48.9077 63.4221 48.9178 63.4982 48.93C63.5742 48.9423 63.6509 48.9568 63.7284 48.9733C63.8059 48.9899 63.8842 49.0089 63.9632 49.0301C64.0421 49.0513 64.1218 49.0749 64.2023 49.1009C64.2827 49.1269 64.3639 49.1551 64.4459 49.186C64.5279 49.2168 64.6106 49.2498 64.6941 49.2856C64.7775 49.3214 64.8617 49.3598 64.9467 49.4007C65.0318 49.4416 65.1177 49.4849 65.2044 49.5311C65.291 49.5773 65.3784 49.6262 65.4667 49.6779C65.555 49.7294 65.6441 49.7837 65.734 49.8408C65.8238 49.898 65.9146 49.958 66.0062 50.0209C66.0977 50.0836 66.1902 50.1494 66.2835 50.2181C66.3767 50.2868 66.4709 50.3582 66.5659 50.4328C66.9532 50.7371 67.3141 51.0212 67.6527 51.2848C67.9912 51.5485 68.3073 51.7918 68.6046 52.0151C68.7532 52.1268 68.8971 52.2335 69.0369 52.3352C69.1766 52.4368 69.3122 52.5335 69.444 52.6252C69.5758 52.7168 69.7037 52.8035 69.8284 52.8852C69.9532 52.967 70.0747 53.0438 70.1934 53.1157C70.312 53.1875 70.4279 53.2544 70.5414 53.3164C70.6549 53.3783 70.7659 53.4355 70.8752 53.4878C70.9845 53.54 71.0918 53.5874 71.1978 53.6298C71.3038 53.6723 71.4085 53.7099 71.5122 53.7426C71.6158 53.7753 71.7186 53.8032 71.8208 53.8263C71.9231 53.8495 72.0247 53.8675 72.1265 53.881C72.2282 53.8944 72.3301 53.9032 72.4323 53.9071C72.5346 53.911 72.6371 53.91 72.7408 53.9041C72.8444 53.8981 72.9491 53.8881 73.0551 53.8728C73.1611 53.8577 73.2684 53.8376 73.3777 53.813C73.487 53.7884 73.5981 53.759 73.7116 53.7249C73.825 53.6908 73.9408 53.6522 74.0594 53.6088C74.178 53.5654 74.2996 53.5172 74.4243 53.4644C74.549 53.4116 74.677 53.3543 74.8088 53.2923C74.9405 53.2303 75.076 53.1636 75.2157 53.0923C75.3554 53.0211 75.4994 52.9451 75.648 52.8646C75.7966 52.7842 75.9498 52.6992 76.1083 52.6096C76.2667 52.5199 76.4304 52.4258 76.5997 52.327C76.9381 52.1296 77.2991 51.9141 77.6863 51.6804C78.3239 51.2957 79.0864 50.831 79.8831 50.3494L79.8378 49.13V47.5669L79.2735 46.6049L79.4616 45.4024V44.0796C79.4616 43.5986 80.3077 43.4785 80.3077 43.4785C80.3077 43.4785 80.6789 43.1922 80.8935 42.4529C80.8087 42.451 80.7241 42.448 80.6355 42.4522C80.5145 42.4572 80.3899 42.4682 80.2616 42.4843C80.1334 42.5004 80.0016 42.5223 79.866 42.5508C79.7304 42.5792 79.5912 42.614 79.448 42.6556C79.3049 42.6973 79.1578 42.7456 79.0071 42.8014C78.8563 42.8574 78.7018 42.9209 78.5432 42.9921C78.3847 43.0632 78.2221 43.1422 78.0556 43.2296C77.8891 43.3168 77.7186 43.4126 77.5441 43.5172C77.3695 43.6218 77.1909 43.7351 77.0082 43.8579C76.8254 43.9807 76.6383 44.113 76.4472 44.2551C76.2562 44.3971 76.0609 44.549 75.8613 44.7113C75.6618 44.8736 75.458 45.0462 75.2498 45.2297C75.1735 45.2969 75.0968 45.3597 75.0197 45.418C74.9427 45.4762 74.8652 45.5301 74.7874 45.5797C74.7095 45.6293 74.6315 45.6747 74.553 45.7159C74.4745 45.7571 74.3954 45.7942 74.3162 45.8276C74.237 45.8608 74.1576 45.8902 74.0777 45.9159C73.9978 45.9416 73.9177 45.9634 73.8372 45.9818C73.7568 46.0001 73.6759 46.0147 73.5948 46.0261C73.5137 46.0374 73.4322 46.0455 73.3506 46.0502C73.2689 46.0552 73.187 46.0562 73.1048 46.0552C73.0225 46.0532 72.9401 46.0492 72.8574 46.0415C72.7747 46.0335 72.6915 46.0236 72.6083 46.0105C72.525 45.9973 72.4415 45.9816 72.3577 45.9631C72.274 45.9448 72.19 45.9238 72.1058 45.9006C72.0216 45.8773 71.9374 45.8519 71.8527 45.8239C71.6835 45.7682 71.5134 45.7036 71.3426 45.6316C71.1719 45.5597 71.0003 45.4803 70.8282 45.3948C70.6561 45.3093 70.4835 45.2177 70.3102 45.1215C70.1369 45.0252 69.9631 44.9243 69.7889 44.8199C69.6147 44.7156 69.4401 44.608 69.2652 44.4983C68.9153 44.279 68.5642 44.0515 68.2126 43.8273C68.0369 43.7151 67.8611 43.6038 67.6852 43.4946C67.5093 43.3853 67.3334 43.278 67.1576 43.1743C66.9818 43.0706 66.806 42.9705 66.6305 42.8752C66.455 42.7797 66.2799 42.6893 66.1049 42.6051C65.9299 42.5208 65.7551 42.4427 65.5808 42.3722C65.4936 42.3369 65.4065 42.3036 65.3196 42.2724C65.2326 42.241 65.1459 42.2119 65.0592 42.185C64.9726 42.158 64.8859 42.1332 64.7995 42.1109C64.7131 42.0886 64.6268 42.0688 64.5407 42.0513C64.4546 42.034 64.3685 42.019 64.2826 42.007C64.1968 41.995 64.1113 41.9857 64.0258 41.9793C63.9404 41.9724 63.8551 41.9694 63.77 41.9692Z" fill="#1A1A1A" stroke="black" stroke-width="0.7" stroke-linecap="round" stroke-linejoin="round"/>
<path d="M80.2147 53.7071L80.214 53.6992L80.1635 53.3323L80.129 53.5571L80.2147 53.7071Z" fill="white" stroke="black" stroke-width="0.7" stroke-linecap="round" stroke-linejoin="round"/>
<path d="M56.9219 55.5449C56.9181 55.5399 56.9162 55.534 56.9122 55.5289C56.8945 55.5033 56.8755 55.4792 56.8552 55.4567C56.8351 55.4344 56.8136 55.4137 56.791 55.3949C56.7685 55.3759 56.7448 55.3589 56.7201 55.3435C56.6954 55.3282 56.6697 55.3148 56.6431 55.3034C56.6165 55.292 56.589 55.2824 56.5606 55.2751C56.5322 55.2671 56.5029 55.2623 56.473 55.2591C56.443 55.2561 56.4126 55.2541 56.3812 55.2561C56.3575 55.2568 56.3337 55.2591 56.3093 55.2631C56.285 55.267 56.2604 55.272 56.2354 55.2775C56.2105 55.2835 56.1852 55.2913 56.1598 55.3002C56.1551 55.3022 56.1504 55.3042 56.1462 55.3062C56.2076 55.3259 56.2691 55.3467 56.3304 55.366C56.4973 55.4188 56.664 55.4699 56.8304 55.5193C56.8609 55.5283 56.8914 55.5359 56.9219 55.5449Z" fill="white" stroke="black" stroke-width="0.7" stroke-linecap="round" stroke-linejoin="round"/>
<path d="M49.0408 71.1694L48.718 72.0981L48.342 72.8198L47.6838 74.0221L47.5899 74.7437L49.1882 75.826H50.3163L51.8206 75.7057L53.1369 75.3449H54.5472L54.6412 75.1043L56.0515 74.984H57.6498L60.4704 74.864L61.5985 74.984L63.291 75.4651C63.291 75.4651 64.5131 76.5474 64.9832 76.5474C65.4533 76.5474 64.6072 75.3449 64.6072 75.3449L64.4191 74.2626L65.2652 74.0221L65.0773 73.1804L65.2652 72.6995L66.2055 72.3387L67.0516 71.6173L66.9577 71.0159L66.1115 71.7375L65.6414 71.1362L65.2652 69.6933L64.7951 68.7313L65.2607 67.6067C64.9943 67.709 64.6453 67.8437 64.3937 67.9401C63.9142 68.1238 63.451 68.3005 63.0028 68.4699C62.5546 68.6394 62.1216 68.8016 61.7024 68.9569C61.2832 69.1122 60.8777 69.2603 60.4852 69.4012C60.0927 69.5421 59.7132 69.6758 59.345 69.8023C58.9769 69.9289 58.6202 70.0483 58.2742 70.1604C57.9281 70.2724 57.5927 70.3772 57.2664 70.4748C56.94 70.5723 56.623 70.6626 56.3141 70.7456C56.0052 70.8285 55.7039 70.9042 55.4101 70.9725C55.2632 71.0066 55.1179 71.0389 54.9744 71.0693C54.8309 71.0997 54.6891 71.1283 54.5486 71.1551C54.4081 71.1819 54.269 71.2069 54.1313 71.2299C53.9935 71.2531 53.8569 71.2743 53.7216 71.2936C53.5863 71.3129 53.4522 71.3304 53.319 71.3462C53.1859 71.3619 53.0538 71.3759 52.9226 71.3877C52.7913 71.3996 52.6608 71.4096 52.531 71.4176C52.4013 71.4255 52.2724 71.4321 52.144 71.4366C52.0157 71.4406 51.888 71.4436 51.7608 71.4446C51.6335 71.4453 51.5067 71.4443 51.38 71.4406C51.2534 71.4376 51.127 71.4327 51.0007 71.4259C50.8745 71.419 50.7484 71.4105 50.6224 71.3999C50.4963 71.3893 50.3703 71.3768 50.2442 71.3626C50.1181 71.3483 49.9919 71.3321 49.8653 71.314C49.7386 71.2958 49.6117 71.2756 49.4844 71.2537C49.357 71.2318 49.2291 71.208 49.1007 71.1822C49.0808 71.1782 49.0607 71.1734 49.0408 71.1694Z" fill="#B3B3B3" stroke="black" stroke-width="0.7" stroke-linecap="round" stroke-linejoin="round"/>
<path d="M23.7048 75.0841L23.4267 75.7061H22.7687L22.3925 77.5097L22.2046 78.3514L21.8285 79.3134L21.2644 80.1551L21.4525 81.3576L22.0165 81.8387L22.5806 82.4399L23.1447 84.4841L23.709 83.6424L24.7432 83.4018L25.6832 83.6424L26.2473 82.921L26.7174 82.1993L26.2473 81.8387L25.6832 80.5159L25.1191 81.4779L24.4609 81.3576L24.085 80.7565L23.8969 79.3134L24.649 77.3895L25.6832 77.1489L26.4354 77.0286L27.9397 76.7883V76.4676C27.8658 76.418 27.7917 76.3672 27.7187 76.3206C27.6031 76.2467 27.4884 76.1767 27.3749 76.11C27.2613 76.0434 27.1489 75.98 27.0375 75.9204C26.926 75.8607 26.8156 75.8049 26.7062 75.752C26.5968 75.6992 26.4886 75.6493 26.3812 75.6031C26.2738 75.5569 26.1676 75.5142 26.0622 75.4744C25.9568 75.4346 25.8523 75.398 25.7488 75.3645C25.6453 75.3309 25.5429 75.3005 25.4414 75.273C25.3398 75.2455 25.2391 75.221 25.1394 75.1996C25.0398 75.1782 24.941 75.1595 24.8432 75.1436C24.7454 75.1278 24.6485 75.1147 24.5525 75.1044C24.4565 75.0942 24.3615 75.0868 24.2673 75.082C24.1731 75.0771 24.0795 75.0741 23.9871 75.0741C23.8946 75.0744 23.8031 75.0771 23.7123 75.082C23.7095 75.0822 23.7076 75.0825 23.7048 75.0827L23.7048 75.0841Z" fill="#ECECEC" stroke="black" stroke-width="0.7" stroke-linecap="round" stroke-linejoin="round"/>
<path d="M23.7052 75.0833C23.708 75.0832 23.7099 75.0829 23.7127 75.0826C23.8035 75.0776 23.895 75.0747 23.9875 75.0747C24.0799 75.0744 24.1735 75.0766 24.2678 75.0826C24.362 75.0875 24.4569 75.0946 24.5529 75.1049C24.6489 75.1151 24.7458 75.1283 24.8436 75.1441C24.9415 75.1598 25.0402 75.1786 25.1399 75.2001C25.2395 75.2215 25.3402 75.246 25.4418 75.2735C25.5433 75.3009 25.6458 75.3313 25.7492 75.3648C25.8527 75.3984 25.9572 75.435 26.0626 75.4748C26.168 75.5147 26.2743 75.5573 26.3816 75.6035C26.489 75.6497 26.5972 75.6995 26.7066 75.7524C26.816 75.8053 26.9265 75.8611 27.0379 75.9207C27.1493 75.9804 27.2618 76.0438 27.3753 76.1104C27.4888 76.1771 27.6035 76.2471 27.7192 76.321C27.7922 76.3676 27.8663 76.4183 27.9401 76.468V75.7064L28.6923 75.5862L29.5384 74.9848V75.3456L29.4445 75.9467V76.6684L30.3845 76.4279L30.9488 76.7887L31.2308 77.2696L32.735 76.909V76.3076L33.4871 75.1051L34.2393 75.8267L34.8034 74.8648L35.6497 74.6242H36.4018L37.7181 74.9848L38.5642 75.7064L39.4103 75.9467L39.9744 76.909L40.3506 77.6304L41.1027 77.991L42.0428 77.3898L43.4532 76.6684L44.2993 76.4279H44.8598C44.754 76.3901 44.6521 76.3559 44.5443 76.3163C44.2549 76.21 43.958 76.0974 43.6523 75.9782C43.3465 75.859 43.0319 75.7333 42.7077 75.6012C42.3835 75.469 42.0495 75.3302 41.7046 75.185C41.3597 75.0398 41.0041 74.8882 40.6363 74.7299C40.2686 74.5717 39.8889 74.4069 39.4962 74.2355C38.7107 73.8927 37.8732 73.5233 36.9746 73.1277C36.7542 73.0307 36.5355 72.9377 36.3191 72.8484C36.1027 72.7592 35.8884 72.6739 35.6759 72.5922C35.4634 72.5104 35.2529 72.4322 35.0442 72.358C34.8356 72.2836 34.6288 72.2131 34.424 72.146C34.2193 72.079 34.0165 72.0152 33.8155 71.9551C33.6144 71.8951 33.4151 71.8391 33.2177 71.7859C33.0204 71.7326 32.8251 71.6825 32.6314 71.6361C32.4377 71.5895 32.2459 71.5467 32.0557 71.5066C31.8655 71.4666 31.6771 71.4297 31.4904 71.396C31.3038 71.3623 31.1188 71.3314 30.9356 71.3038C30.905 71.2989 30.8751 71.2959 30.8446 71.2915L30.7607 71.3775L30.9488 72.099L29.3503 73.3015H29.0682L28.0341 73.542L27.47 72.5801L26.1537 74.0229H25.5897L25.0256 74.2635L24.2734 74.8648H23.8033L23.7052 75.0833Z" fill="#CCCCCC" stroke="black" stroke-width="0.7" stroke-linecap="round" stroke-linejoin="round"/>
<path d="M24.0964 66.3762L24.1249 66.4419L24.14 66.4311L24.0964 66.3762Z" fill="white" stroke="black" stroke-width="0.7" stroke-linecap="round" stroke-linejoin="round"/>
<path d="M23.9833 63.9843C23.8655 64.0142 23.7476 64.044 23.6314 64.0764C23.478 64.1191 23.3258 64.1641 23.1752 64.2112C23.12 64.2285 23.0658 64.2474 23.011 64.2653L23.3328 64.5225L23.4651 64.8609L23.7744 64.1223C23.8439 64.0751 23.9137 64.0306 23.9833 63.9843Z" fill="white" stroke="black" stroke-width="0.7" stroke-linecap="round" stroke-linejoin="round"/>
<path d="M23.9834 63.9843C23.9138 64.0306 23.844 64.0752 23.7745 64.1224L23.4653 64.8609L23.7091 65.4846L24.0965 66.3769L24.139 66.4301L24.1243 66.4407L24.179 66.5668L24.6492 66.9274V67.6491L25.1193 68.4907H26.0595L26.4355 69.3324L27.0937 68.3705L27.8459 68.2502L28.974 67.6491L29.1621 68.3705H30.0082H31.1364L31.9827 69.4527L31.7005 70.4147L30.8443 71.2906C30.8748 71.2956 30.9047 71.2985 30.9353 71.303C31.1185 71.3307 31.3035 71.3614 31.4901 71.3951C31.6768 71.4289 31.8652 71.4657 32.0554 71.5058C32.2455 71.5459 32.4374 71.5886 32.6311 71.6352C32.8248 71.6817 33.02 71.7318 33.2174 71.785C33.4148 71.8382 33.6141 71.8943 33.8152 71.9543C34.0162 72.0143 34.219 72.0781 34.4237 72.1451C34.6285 72.2122 34.8353 72.2828 35.0439 72.3571C35.2526 72.4315 35.4631 72.5096 35.6756 72.5913C35.8881 72.673 36.1024 72.7583 36.3188 72.8476C36.5352 72.9368 36.7539 73.0298 36.9743 73.1268C37.8729 73.5225 38.7104 73.8918 39.4959 74.2346C39.8886 74.406 40.2683 74.5708 40.6361 74.7291C41.0038 74.8873 41.3594 75.039 41.7043 75.1842C42.0492 75.3294 42.3832 75.4682 42.7074 75.6003C43.0316 75.7325 43.3462 75.8581 43.652 75.9773C43.9577 76.0965 44.2546 76.2091 44.544 76.3154C44.6518 76.3551 44.7537 76.3892 44.8595 76.427H45.6152H46.5555L47.4957 75.1042L47.3076 74.1422L46.2734 73.1803L45.3332 71.9777L45.8973 71.1361L46.8487 70.5635C46.7976 70.5461 46.7474 70.5298 46.6959 70.5119C46.4148 70.4145 46.1277 70.3094 45.8339 70.1963C45.5399 70.0833 45.239 69.9624 44.93 69.8339C44.621 69.7053 44.3041 69.5694 43.9777 69.4252C43.6513 69.2811 43.3155 69.1288 42.9693 68.969C42.6232 68.8091 42.2667 68.6414 41.8985 68.4658C41.5303 68.2902 41.1505 68.1067 40.758 67.9153C40.3654 67.724 39.9599 67.5246 39.5406 67.3173C38.702 66.9027 37.8079 66.4561 36.8486 65.9776C36.6134 65.8602 36.3801 65.7477 36.149 65.6397C35.918 65.5318 35.6891 65.4286 35.4623 65.3298C35.2355 65.231 35.0108 65.1364 34.7881 65.0465C34.5654 64.9567 34.3446 64.8714 34.126 64.7903C33.9073 64.7092 33.6908 64.6322 33.4762 64.5596C33.2616 64.487 33.0488 64.419 32.8381 64.3547C32.6274 64.2903 32.419 64.2299 32.2122 64.1737C32.0053 64.1173 31.8005 64.0653 31.5975 64.0168C31.3945 63.9683 31.1933 63.9237 30.994 63.8829C30.7948 63.8422 30.5973 63.8051 30.4018 63.7718C30.2062 63.7385 30.0123 63.7086 29.8204 63.6825C29.6284 63.6563 29.4384 63.6336 29.25 63.6142C29.0616 63.595 28.8749 63.5791 28.6901 63.5666C28.5051 63.5541 28.322 63.5452 28.1405 63.5394C27.9591 63.5335 27.7792 63.5305 27.6011 63.5305C27.423 63.5309 27.2465 63.5335 27.0717 63.5404C26.8969 63.5474 26.7237 63.5563 26.5521 63.5685C26.3806 63.5808 26.2108 63.5961 26.0424 63.6139C25.874 63.6319 25.7076 63.6525 25.5424 63.6758C25.3771 63.6991 25.2133 63.7248 25.0511 63.7535C24.889 63.7819 24.7284 63.8134 24.5692 63.8468C24.41 63.8803 24.2522 63.9159 24.0959 63.9542C24.0581 63.9641 24.0211 63.9747 23.9834 63.9843Z" fill="#999999" stroke="black" stroke-width="0.7" stroke-linecap="round" stroke-linejoin="round"/>
<path d="M23.0112 64.2655C23.0661 64.2477 23.1203 64.2286 23.1755 64.2114C23.3261 64.1642 23.4783 64.1193 23.6317 64.0765C23.7851 64.0338 23.9398 63.9931 24.0961 63.9549C24.2523 63.9167 24.4102 63.8809 24.5694 63.8475C24.7286 63.814 24.8891 63.7826 25.0513 63.7541C25.2135 63.7257 25.3773 63.6999 25.5425 63.6765C25.7077 63.6531 25.8742 63.6326 26.0426 63.6147C26.2109 63.5967 26.3807 63.5815 26.5523 63.5693C26.7238 63.557 26.8971 63.5476 27.0718 63.5412C27.2466 63.5343 27.4232 63.5313 27.6013 63.5313C27.7793 63.531 27.9592 63.5343 28.1407 63.5402C28.3222 63.5462 28.5053 63.5549 28.6902 63.5674C28.8751 63.5799 29.0617 63.5957 29.2501 63.615C29.4385 63.6342 29.6286 63.657 29.8205 63.6832C30.0125 63.7094 30.2064 63.7393 30.4019 63.7726C30.5975 63.8059 30.7949 63.8429 30.9942 63.8837C31.1934 63.9245 31.3946 63.9692 31.5976 64.0176C31.8006 64.0661 32.0055 64.1182 32.2123 64.1744C32.4191 64.2307 32.6275 64.2911 32.8382 64.3555C33.0489 64.4198 33.2617 64.4877 33.4764 64.5604C33.691 64.6329 33.9075 64.71 34.1261 64.7911C34.3447 64.8722 34.5656 64.9575 34.7883 65.0473C35.011 65.1372 35.2356 65.2317 35.4624 65.3306C35.6893 65.4293 35.9182 65.5325 36.1492 65.6405C36.3802 65.7485 36.6135 65.861 36.8488 65.9783C37.8081 66.4569 38.7022 66.9034 39.5407 67.318C39.96 67.5253 40.3655 67.7247 40.7581 67.9161C41.1507 68.1075 41.5305 68.291 41.8987 68.4666C42.2669 68.6422 42.6234 68.8099 42.9695 68.9698C43.3156 69.1296 43.6515 69.2819 43.9779 69.426C44.3043 69.5702 44.6212 69.7061 44.9302 69.8347C45.2392 69.9632 45.5401 70.0841 45.834 70.1971C46.1279 70.3101 46.4149 70.4152 46.6961 70.5127C46.7475 70.5306 46.7978 70.5469 46.8489 70.5643L47.4959 70.1749L49.0942 71.0165L49.0408 71.1701C49.0606 71.1741 49.0808 71.1791 49.1006 71.183C49.229 71.2088 49.3569 71.2326 49.4843 71.2545C49.6117 71.2764 49.7386 71.2966 49.8652 71.3148C49.9918 71.333 50.118 71.349 50.2442 71.3634C50.3703 71.3778 50.4963 71.3902 50.6223 71.4007C50.7483 71.4112 50.8744 71.4199 51.0007 71.4268C51.1269 71.4337 51.2534 71.4385 51.38 71.4416C51.5066 71.4445 51.6335 71.4465 51.7607 71.4455C51.888 71.4448 52.0156 71.4416 52.144 71.4376C52.2723 71.4326 52.4012 71.4267 52.531 71.4187C52.6607 71.4107 52.7913 71.4005 52.9225 71.3887C53.0538 71.3768 53.1859 71.3629 53.319 71.3472C53.4521 71.3316 53.5862 71.3141 53.7216 71.2947C53.8569 71.2753 53.9935 71.2539 54.1312 71.2309C54.269 71.2077 54.408 71.1828 54.5486 71.1561C54.6891 71.1294 54.8309 71.1007 54.9744 71.0704C55.1179 71.04 55.2631 71.0077 55.41 70.9736C55.7039 70.9053 56.0051 70.8295 56.314 70.7466C56.623 70.6637 56.94 70.5734 57.2663 70.4758C57.5927 70.3782 57.9281 70.2735 58.2741 70.1614C58.6202 70.0493 58.9769 69.9299 59.345 69.8034C59.7131 69.6769 60.0926 69.5432 60.4851 69.4023C60.8776 69.2613 61.2831 69.1132 61.7023 68.958C62.1215 68.8027 62.5546 68.6404 63.0028 68.471C63.451 68.3015 63.9141 68.1248 64.3937 67.9411C64.6453 67.8447 64.9942 67.7101 65.2607 67.6077L65.6414 66.6882L66.0174 66.4476L66.4875 66.0868L66.9576 66.3274V65.3654L67.5217 65.0046L68.2738 63.8023L68.4599 63.3737C68.3089 63.4271 68.1359 63.4901 67.9892 63.5413C67.662 63.6556 67.3455 63.7645 67.0391 63.8681C66.7328 63.9719 66.4367 64.0702 66.1493 64.1633C65.862 64.2565 65.5836 64.3444 65.3134 64.4269C65.0433 64.5094 64.7813 64.5865 64.5266 64.6583C64.2719 64.7301 64.0244 64.7963 63.7833 64.8573C63.5421 64.9184 63.3072 64.9742 63.0778 65.0245C62.8484 65.0748 62.6246 65.1192 62.4052 65.1586C62.1858 65.198 61.9711 65.2321 61.7598 65.2606C61.5486 65.2891 61.341 65.3125 61.1361 65.33C60.9312 65.3476 60.7286 65.3593 60.5283 65.3659C60.4281 65.3689 60.3284 65.3709 60.2291 65.3719C60.1298 65.3723 60.0309 65.3717 59.9321 65.3689C59.7344 65.3639 59.5374 65.3542 59.3406 65.3386C59.1439 65.3231 58.9473 65.3023 58.7496 65.2757C58.5519 65.249 58.3532 65.2168 58.1528 65.1789C57.9524 65.141 57.7501 65.0974 57.5452 65.0483C57.3403 64.9992 57.1327 64.9443 56.9215 64.8839C56.7102 64.8235 56.4955 64.7573 56.276 64.6856C56.0566 64.6138 55.8325 64.5366 55.6031 64.4535C55.3737 64.3704 55.1385 64.2815 54.8974 64.1869C54.6562 64.0923 54.4088 63.9919 54.1541 63.8859C53.8993 63.7798 53.6372 63.668 53.367 63.5504C53.0969 63.4327 52.8186 63.3093 52.5312 63.1801C51.9564 62.9217 51.3454 62.6402 50.6908 62.3352C50.0363 62.0301 49.3384 61.7014 48.5896 61.3493C48.4059 61.2629 48.2237 61.1802 48.0434 61.1008C47.8631 61.0213 47.6844 60.9453 47.5073 60.8726C47.3302 60.7999 47.1549 60.7305 46.981 60.6644C46.8072 60.5983 46.6349 60.5356 46.4642 60.476C46.2936 60.4163 46.1246 60.3594 45.9571 60.306C45.7896 60.2526 45.6234 60.2025 45.459 60.1552C45.2945 60.1079 45.1318 60.0634 44.9703 60.022C44.8089 59.9807 44.649 59.9424 44.4906 59.9067C44.3321 59.871 44.1752 59.8381 44.0196 59.8082C43.8641 59.7782 43.7099 59.751 43.5572 59.7264C43.4045 59.7018 43.2532 59.68 43.1034 59.6606C42.9536 59.6414 42.8054 59.6246 42.6583 59.6104C42.5113 59.5963 42.3654 59.5845 42.2211 59.5752C42.0767 59.5663 41.9339 59.5595 41.7923 59.5554C41.6507 59.5514 41.5102 59.5485 41.3712 59.5485C41.2322 59.5487 41.0944 59.5514 40.958 59.5564C40.8216 59.5614 40.6864 59.568 40.5525 59.577C40.4186 59.5859 40.2859 59.5973 40.1544 59.6105C40.023 59.6237 39.8931 59.6388 39.7641 59.656C39.6351 59.6731 39.5072 59.6923 39.3806 59.7132C39.254 59.7341 39.1287 59.7573 39.0044 59.7819C38.8802 59.8065 38.7571 59.8328 38.6351 59.8609C38.5132 59.8889 38.3923 59.9187 38.2726 59.9502C38.1528 59.9816 38.034 60.015 37.9165 60.0496C37.7989 60.0842 37.6825 60.1202 37.5671 60.1579C37.4516 60.1956 37.3371 60.2347 37.2238 60.2752C37.1107 60.3156 37.0018 60.3613 36.8907 60.4043L37.3488 59.7029L37.2805 59.6299C37.3022 59.5877 37.3205 59.5462 37.3355 59.5054C37.3504 59.4646 37.3619 59.4246 37.3705 59.3853C37.379 59.3461 37.3847 59.3077 37.3872 59.2702C37.3901 59.2327 37.3891 59.1962 37.3863 59.1607C37.3835 59.1251 37.3769 59.0907 37.3684 59.0573C37.3599 59.0239 37.3484 58.9914 37.3345 58.9602C37.3207 58.929 37.3043 58.8991 37.2857 58.8704C37.2671 58.8417 37.2461 58.8142 37.2228 58.7881C37.1996 58.7619 37.1743 58.737 37.1468 58.7137C37.1193 58.6903 37.0899 58.6687 37.0586 58.6482C37.0273 58.6278 36.9939 58.6089 36.9589 58.5917C36.9239 58.5745 36.8873 58.559 36.8491 58.5451C36.8107 58.5312 36.7708 58.5189 36.7295 58.5085C36.6882 58.4981 36.6455 58.4895 36.6015 58.4827C36.5574 58.4758 36.512 58.4711 36.4656 58.4682C36.4192 58.4652 36.3718 58.4643 36.3232 58.4653C36.2499 58.4672 36.1741 58.4732 36.0969 58.4845C36.0196 58.4958 35.9407 58.5122 35.8605 58.5337C35.7805 58.5552 35.6992 58.582 35.6173 58.6143C35.5353 58.6466 35.4526 58.6845 35.3699 58.7285H34.6221L34.7407 58.5107H34.6156C33.9575 58.5107 34.0515 58.8713 34.0515 58.8713H33.2052L33.0173 59.1118L32.3591 59.8335L31.6069 60.7954H31.1368L30.3846 60.6752L29.8206 61.156L29.3505 61.2763L28.2223 60.4346L27.5641 60.7954L26.624 62.118H25.5898L24.9316 63.08H23.8974L23.3333 62.9597L22.5812 63.9217L23.0112 64.2655Z" fill="#808080" stroke="black" stroke-width="0.7" stroke-linecap="round" stroke-linejoin="round"/>
<path d="M34.7406 58.5098L34.622 58.7276H35.3698C35.4526 58.6836 35.5353 58.6458 35.6172 58.6134C35.6992 58.5811 35.7803 58.5543 35.8604 58.5328C35.9405 58.5113 36.0195 58.4949 36.0968 58.4836C36.174 58.4723 36.2498 58.466 36.3231 58.4643C36.3716 58.4635 36.4191 58.4642 36.4655 58.4672C36.5119 58.4702 36.5573 58.4752 36.6014 58.4817C36.6454 58.4886 36.688 58.497 36.7294 58.5075C36.7707 58.518 36.8106 58.5302 36.849 58.5441C36.8873 58.558 36.9239 58.5735 36.9589 58.5907C36.9939 58.6079 37.0272 58.6269 37.0585 58.6472C37.0898 58.6677 37.1193 58.6893 37.1467 58.7127C37.1742 58.7361 37.1995 58.7609 37.2227 58.7871C37.246 58.8132 37.2669 58.8406 37.2856 58.8694C37.3042 58.898 37.3206 58.928 37.3344 58.9592C37.3483 58.9905 37.3597 59.0229 37.3683 59.0563C37.3768 59.0897 37.383 59.1242 37.3863 59.1597C37.3891 59.1953 37.3901 59.2318 37.3872 59.2692C37.3844 59.3067 37.3788 59.3451 37.3705 59.3843C37.362 59.4236 37.3503 59.4636 37.3355 59.5044C37.3205 59.5451 37.3022 59.5867 37.2805 59.6289L37.3488 59.7018L36.8907 60.4032C37.0018 60.3602 37.1107 60.3145 37.2238 60.274C37.3371 60.2335 37.4516 60.1945 37.5671 60.1568C37.6825 60.1191 37.7989 60.0831 37.9165 60.0485C38.034 60.0138 38.1528 59.9806 38.2725 59.9491C38.3923 59.9176 38.5131 59.8879 38.6351 59.8597C38.7571 59.8317 38.8802 59.8054 39.0044 59.7808C39.1287 59.7562 39.254 59.7331 39.3806 59.7121C39.5072 59.6911 39.6351 59.672 39.7641 59.6549C39.8931 59.6378 40.023 59.6226 40.1544 59.6095C40.2859 59.5963 40.4186 59.5851 40.5525 59.576C40.6864 59.5671 40.8216 59.5601 40.958 59.5554C41.0944 59.5504 41.2322 59.5474 41.3712 59.5474C41.5102 59.5472 41.6507 59.5494 41.7923 59.5544C41.9339 59.5583 42.0767 59.5652 42.2211 59.5742C42.3654 59.5841 42.5113 59.5951 42.6583 59.6094C42.8054 59.6236 42.9536 59.6405 43.1034 59.6596C43.2532 59.6789 43.4045 59.7007 43.5572 59.7253C43.7099 59.7498 43.8641 59.777 44.0196 59.8071C44.1752 59.8371 44.3321 59.8699 44.4906 59.9055C44.649 59.9413 44.8089 59.9795 44.9703 60.0209C45.1318 60.0622 45.2945 60.1068 45.459 60.1541C45.6234 60.2015 45.7895 60.2514 45.9571 60.3048C46.1246 60.3582 46.2936 60.4151 46.4642 60.4748C46.6349 60.5345 46.8072 60.5972 46.981 60.6633C47.1549 60.7295 47.3302 60.7988 47.5073 60.8715C47.6844 60.9442 47.8631 61.0202 48.0434 61.0996C48.2237 61.1791 48.4059 61.2618 48.5895 61.3482C49.3384 61.7003 50.0363 62.029 50.6908 62.334C51.3454 62.6391 51.9564 62.9206 52.5312 63.179C52.8186 63.3082 53.0969 63.4316 53.367 63.5492C53.6372 63.6668 53.8993 63.7786 54.1541 63.8847C54.4088 63.9908 54.6562 64.0912 54.8974 64.1858C55.1386 64.2804 55.3736 64.3692 55.6031 64.4523C55.8324 64.5356 56.0566 64.6127 56.276 64.6845C56.4955 64.7563 56.7102 64.8224 56.9215 64.8828C57.1327 64.9432 57.3403 64.998 57.5452 65.0472C57.7501 65.0962 57.9524 65.1399 58.1528 65.1778C58.3532 65.2157 58.5519 65.248 58.7496 65.2745C58.9472 65.3013 59.1439 65.3221 59.3406 65.3375C59.5374 65.3531 59.7344 65.3633 59.9321 65.3678C60.0309 65.3698 60.1298 65.3707 60.2291 65.3707C60.3284 65.3703 60.4281 65.3678 60.5283 65.3648C60.7286 65.3579 60.9311 65.3464 61.136 65.329C61.341 65.3114 61.5486 65.2881 61.7598 65.2596C61.971 65.2311 62.1858 65.197 62.4052 65.1576C62.6246 65.1182 62.8485 65.0738 63.0778 65.0235C63.3072 64.9732 63.5422 64.9173 63.7833 64.8563C64.0245 64.7952 64.2719 64.729 64.5266 64.6573C64.7813 64.5855 65.0433 64.5083 65.3134 64.4258C65.5836 64.3433 65.862 64.2554 66.1493 64.1623C66.4366 64.0692 66.7328 63.9708 67.0391 63.8671C67.3455 63.7634 67.662 63.6545 67.9892 63.5403C68.1359 63.4891 68.3089 63.4259 68.46 63.3727L68.744 62.719L69.3177 62.1319C69.2933 62.1186 69.2693 62.1062 69.2449 62.0926C69.1742 62.0531 69.1027 62.0122 69.0304 61.9697C68.9581 61.9272 68.8849 61.8831 68.811 61.8375C68.737 61.7917 68.6622 61.7444 68.5864 61.6956C68.5106 61.6467 68.4338 61.5964 68.356 61.5444C68.2005 61.4404 68.0411 61.3304 67.8768 61.2138C67.7126 61.0973 67.5437 60.9743 67.3695 60.845C67.1953 60.7158 67.0159 60.58 66.8306 60.438C66.6453 60.296 66.4542 60.1476 66.2567 59.9928C66.0591 59.838 65.8551 59.677 65.6442 59.5093C65.2222 59.1741 64.7722 58.8129 64.2895 58.4259C64.1711 58.331 64.0536 58.2401 63.9374 58.1528C63.8211 58.0655 63.7059 57.9818 63.5917 57.9019C63.4776 57.8221 63.3646 57.7457 63.2526 57.6731C63.1405 57.6004 63.0293 57.5314 62.9193 57.4658C62.8093 57.4003 62.7004 57.3379 62.5924 57.2792C62.4844 57.2205 62.3772 57.1655 62.2712 57.1134C62.1651 57.0614 62.0603 57.0124 61.9562 56.9669C61.8521 56.9215 61.7492 56.8795 61.647 56.8403C61.5448 56.8011 61.4436 56.765 61.3433 56.732C61.243 56.6991 61.1435 56.669 61.0451 56.6419C60.9467 56.615 60.8492 56.591 60.7526 56.5699C60.656 56.5487 60.5605 56.5301 60.4657 56.5146C60.3709 56.4991 60.2769 56.4863 60.1838 56.4762C60.0908 56.4661 59.9986 56.4587 59.9073 56.4542C59.816 56.4492 59.7253 56.4462 59.6357 56.4472C59.5461 56.4475 59.4574 56.4502 59.3694 56.4552C59.2814 56.4601 59.1944 56.468 59.1081 56.478C59.0218 56.4879 58.9362 56.5003 58.8514 56.5148C58.7667 56.5293 58.6829 56.5459 58.5997 56.5648C58.5166 56.5836 58.4342 56.6047 58.3526 56.6278C58.271 56.6509 58.1902 56.676 58.1101 56.7031C58.03 56.7303 57.9506 56.759 57.872 56.7899C57.7933 56.8208 57.7154 56.8539 57.6382 56.8884C57.561 56.923 57.4844 56.9596 57.4086 56.9976C57.3328 57.0357 57.2577 57.0754 57.1832 57.1167C57.1088 57.1581 57.0351 57.2011 56.9621 57.2457C56.9256 57.2679 56.8898 57.2913 56.8542 57.3154C56.8186 57.3394 56.783 57.364 56.7472 57.3876L57.0426 56.6165L56.9987 56.5362C57.0126 56.4899 57.0243 56.4444 57.034 56.3996C57.0437 56.3548 57.0513 56.3107 57.0567 56.2676C57.0624 56.2244 57.0662 56.1824 57.0674 56.1412C57.0683 56.1002 57.0683 56.0597 57.0667 56.0207C57.0648 55.9816 57.0611 55.9437 57.055 55.907C57.0494 55.8703 57.0422 55.8348 57.0334 55.8005C57.0249 55.7663 57.0139 55.7332 57.0019 55.7016C56.9898 55.6699 56.9763 55.6397 56.9613 55.611C56.9493 55.5879 56.9357 55.5667 56.922 55.5456C56.8915 55.5366 56.8611 55.5284 56.8306 55.5193C56.6642 55.4699 56.4974 55.4187 56.3305 55.3659C56.2693 55.3466 56.2077 55.326 56.1464 55.3061C56.1254 55.3141 56.1044 55.3219 56.0831 55.3316C56.0573 55.3434 56.0314 55.3566 56.0051 55.3715C55.9791 55.3862 55.9526 55.4027 55.9262 55.4206C55.8998 55.4384 55.8734 55.4575 55.8468 55.4784C55.8203 55.4993 55.7935 55.5218 55.7668 55.5459H55.2847L55.3668 55.2885C55.0416 55.5471 54.6171 55.7652 54.09 55.9042C53.6649 56.0163 53.2381 56.118 52.8078 56.1994C52.4887 56.2579 52.1669 56.2883 51.8453 56.3194C51.0799 56.3934 50.5095 56.1914 50.1429 55.8554L50.1285 55.8643L49.3763 56.1049L49.4702 56.7063L48.3421 57.6682L47.4018 57.7885L48.154 55.9846L46.7438 55.8643L46.2737 55.624L45.5215 55.9846L44.8633 55.624L44.2053 56.1049L42.983 57.0669L41.6667 56.8265L41.0085 56.586L40.1624 57.3074L39.2223 57.1871H38.6581L38.2821 57.0669L36.9658 57.3074L35.5555 58.5099L34.7406 58.5098Z" fill="#666666" stroke="black" stroke-width="0.7" stroke-linecap="round" stroke-linejoin="round"/>
<path d="M55.3665 55.2882L55.2843 55.5457H55.7664C55.7931 55.5216 55.8198 55.4991 55.8464 55.4781C55.873 55.4572 55.8993 55.438 55.9258 55.4203C55.9521 55.4026 55.9786 55.3861 56.0047 55.3713C56.0309 55.3565 56.0569 55.3433 56.0828 55.3314C56.1086 55.3196 56.1341 55.3092 56.1595 55.3002C56.1849 55.2913 56.2103 55.2836 56.2352 55.2774C56.26 55.2714 56.2848 55.2664 56.3091 55.2629C56.3334 55.2589 56.3573 55.257 56.381 55.256C56.4122 55.2552 56.4428 55.256 56.4727 55.2589C56.5027 55.2619 56.532 55.2679 56.5604 55.2749C56.5888 55.2828 56.6163 55.2918 56.6429 55.3033C56.6695 55.3147 56.6952 55.3281 56.7199 55.3434C56.7445 55.3587 56.7682 55.3759 56.7907 55.3948C56.8132 55.4139 56.8347 55.4344 56.8549 55.4566C56.8752 55.4789 56.8942 55.5032 56.9119 55.5288C56.9296 55.5544 56.9459 55.5815 56.9609 55.6101C56.9759 55.6388 56.9894 55.669 57.0015 55.7007C57.0135 55.7323 57.024 55.7653 57.033 55.7996C57.0415 55.8339 57.0491 55.8694 57.0546 55.9061C57.0603 55.9428 57.0641 55.9807 57.0663 56.0198C57.0682 56.0589 57.0682 56.0991 57.067 56.1403C57.0651 56.1815 57.0613 56.2236 57.0563 56.2667C57.0507 56.3098 57.0431 56.3539 57.0336 56.3987C57.0239 56.4434 57.0122 56.489 56.9984 56.5354L57.0423 56.6155L56.7469 57.3866C56.7826 57.363 56.8182 57.3385 56.8538 57.3145C56.8894 57.2905 56.9253 57.2669 56.9618 57.2447C57.0348 57.2003 57.1085 57.1572 57.1829 57.1158C57.2574 57.0744 57.3325 57.0348 57.4083 56.9967C57.484 56.9586 57.5607 56.9221 57.6379 56.8874C57.7151 56.8529 57.793 56.8199 57.8717 56.789C57.9504 56.7579 58.0297 56.7293 58.1098 56.7023C58.1899 56.6752 58.2706 56.65 58.3522 56.627C58.4338 56.6039 58.5163 56.5828 58.5994 56.5639C58.6826 56.545 58.7664 56.5284 58.8511 56.514C58.9358 56.4996 59.0214 56.4872 59.1078 56.4773C59.1941 56.4673 59.2811 56.4598 59.3691 56.4544C59.4571 56.4495 59.5458 56.4465 59.6354 56.4465C59.725 56.4462 59.8157 56.4485 59.907 56.4535C59.9983 56.4584 60.0905 56.4654 60.1835 56.4755C60.2766 56.4857 60.3706 56.4984 60.4654 56.5138C60.5602 56.5294 60.6557 56.5481 60.7523 56.5692C60.8489 56.5904 60.9464 56.6141 61.0448 56.6412C61.1432 56.6682 61.2427 56.6983 61.343 56.7312C61.4432 56.7642 61.5445 56.8005 61.6467 56.8396C61.7488 56.8788 61.8518 56.9207 61.9559 56.9662C62.06 57.0116 62.1648 57.0607 62.2708 57.1127C62.3769 57.1648 62.4841 57.2197 62.5921 57.2785C62.7001 57.3372 62.809 57.3995 62.919 57.4651C63.029 57.5307 63.1402 57.5997 63.2523 57.6723C63.3643 57.745 63.4772 57.8213 63.5914 57.9012C63.7055 57.981 63.8208 58.0647 63.937 58.152C64.0533 58.2393 64.1708 58.3303 64.2892 58.4252C64.7719 58.8122 65.2219 59.1733 65.6439 59.5086C65.8549 59.6762 66.0588 59.8373 66.2564 59.9921C66.4539 60.1468 66.645 60.2953 66.8303 60.4373C67.0156 60.5793 67.195 60.715 67.3692 60.8443C67.5434 60.9735 67.7122 61.0965 67.8765 61.2131C68.0407 61.3297 68.2002 61.4397 68.3557 61.5437C68.4334 61.5956 68.5103 61.646 68.5861 61.6949C68.6619 61.7438 68.7367 61.791 68.8106 61.8367C68.8846 61.8825 68.9578 61.9265 69.0301 61.969C69.1023 62.0115 69.1738 62.0524 69.2445 62.0918C69.2691 62.1055 69.293 62.1179 69.3174 62.1312L69.6837 61.7563L70.9999 60.6741L73.4445 59.7121C73.4445 59.7121 74.2907 59.5918 74.7607 59.5918C75.2308 59.5918 76.8292 58.7501 76.8292 58.7501L78.4274 57.3071L79.5558 56.3451L80.4019 55.5034L80.2146 53.707L80.1287 53.5577L80.1632 53.3328L79.9318 51.6555L79.8831 50.3496C79.0865 50.8312 78.3239 51.2959 77.6863 51.6806C77.2991 51.9142 76.9382 52.1298 76.5997 52.3272C76.4305 52.426 76.2668 52.5201 76.1083 52.6097C75.9498 52.6994 75.7966 52.7844 75.648 52.8648C75.4994 52.9453 75.3554 53.0212 75.2157 53.0925C75.076 53.1637 74.9406 53.2305 74.8088 53.2925C74.6771 53.3545 74.5491 53.4118 74.4244 53.4646C74.2996 53.5172 74.178 53.5656 74.0594 53.609C73.9408 53.6524 73.8251 53.691 73.7116 53.725C73.5981 53.7592 73.487 53.7886 73.3777 53.8132C73.2685 53.8378 73.1611 53.8578 73.0551 53.873C72.9492 53.8882 72.8445 53.8985 72.7408 53.9043C72.6372 53.9102 72.5346 53.9112 72.4324 53.9072C72.3301 53.9033 72.2283 53.8946 72.1265 53.8811C72.0247 53.8677 71.9231 53.8495 71.8209 53.8265C71.7186 53.8034 71.6159 53.7755 71.5122 53.7428C71.4086 53.7101 71.3038 53.6725 71.1979 53.63C71.0919 53.5876 70.9845 53.5402 70.8753 53.4879C70.766 53.4357 70.6549 53.3786 70.5414 53.3166C70.4279 53.2546 70.3121 53.1877 70.1934 53.1159C70.0748 53.0441 69.9532 52.9671 69.8285 52.8854C69.7037 52.8037 69.5758 52.7171 69.444 52.6254C69.3122 52.5337 69.1766 52.437 69.0369 52.3354C68.8972 52.2337 68.7533 52.127 68.6046 52.0153C68.3073 51.792 67.9913 51.5487 67.6527 51.285C67.3142 51.0214 66.9532 50.7373 66.5659 50.433C66.4709 50.3584 66.3768 50.2869 66.2835 50.2182C66.1903 50.1495 66.0978 50.0839 66.0062 50.021C65.9146 49.9583 65.8239 49.8981 65.734 49.841C65.6441 49.7839 65.555 49.7296 65.4667 49.678C65.3785 49.6265 65.2911 49.5774 65.2044 49.5313C65.1177 49.4851 65.0319 49.4418 64.9468 49.4009C64.8617 49.3601 64.7776 49.3216 64.6941 49.2858C64.6106 49.2499 64.5279 49.217 64.4459 49.1862C64.364 49.1553 64.2827 49.1269 64.2023 49.1011C64.1218 49.0751 64.0422 49.0515 63.9632 49.0303C63.8842 49.009 63.8059 48.9901 63.7284 48.9735C63.651 48.957 63.5743 48.9424 63.4982 48.9302C63.4222 48.9179 63.3468 48.9079 63.2721 48.8999C63.1975 48.892 63.1236 48.8863 63.0503 48.8826C62.9771 48.8786 62.9044 48.8766 62.8325 48.8776C62.7606 48.8778 62.6894 48.8796 62.6188 48.8846C62.5482 48.8885 62.4783 48.8947 62.4091 48.9024C62.3398 48.9103 62.2712 48.9199 62.2032 48.9313C62.1353 48.9427 62.0681 48.9558 62.0013 48.9706C61.9346 48.9854 61.8685 49.0021 61.803 49.02C61.7375 49.0382 61.6727 49.058 61.6084 49.0793C61.5441 49.1006 61.4805 49.1233 61.4174 49.1476C61.3544 49.1719 61.2918 49.1978 61.2299 49.2249C61.168 49.2521 61.1065 49.2809 61.0457 49.3107C60.9241 49.3706 60.8047 49.4358 60.6875 49.5058C60.6289 49.5408 60.5726 49.5802 60.5152 49.6174L60.4701 49.7327L60.2688 49.7841C60.2276 49.8138 60.1874 49.8453 60.1465 49.8755C59.9808 50.0835 59.8125 50.2136 59.6547 50.28C59.5607 50.3643 59.4677 50.4502 59.3766 50.5391C59.2748 50.6383 59.1747 50.7399 59.0762 50.8436C59.0149 50.9083 58.9552 50.9748 58.895 51.0408C58.8866 51.052 58.8777 51.0633 58.8689 51.0745C58.5086 51.5282 58.1476 51.9808 57.7752 52.4205C57.7211 52.4845 57.6669 52.5441 57.6129 52.601C57.5616 52.6674 57.5078 52.7358 57.4573 52.8013C57.292 53.0154 57.1306 53.224 56.9726 53.4223C56.8935 53.5215 56.8155 53.6181 56.738 53.7116C56.6606 53.8052 56.5836 53.8957 56.5074 53.9824C56.4312 54.0692 56.3556 54.1525 56.2805 54.2314C56.2054 54.3104 56.1308 54.3849 56.0566 54.4549C56.0407 54.47 56.0249 54.4822 56.009 54.4968C55.883 54.7771 55.6668 55.0495 55.3665 55.2882Z" fill="#333333" stroke="black" stroke-width="0.7" stroke-linecap="round" stroke-linejoin="round"/>
<path d="M60.8773 43.5082C60.934 43.4394 60.9907 43.3703 61.0478 43.3068C61.1272 43.2185 61.2069 43.1351 61.2869 43.0566C61.3669 42.9782 61.4474 42.9044 61.528 42.8353C61.6087 42.7662 61.6896 42.7016 61.7708 42.6416C61.8521 42.5816 61.9335 42.5262 62.0153 42.4749C62.0971 42.4236 62.1793 42.3766 62.2617 42.3338C62.344 42.2908 62.4265 42.2521 62.5094 42.2172C62.5923 42.1824 62.6756 42.1516 62.759 42.1244C62.8424 42.0972 62.9258 42.074 63.0097 42.0543C63.0936 42.0347 63.1777 42.0184 63.262 42.0057C63.3463 41.993 63.4308 41.9838 63.5155 41.9778C63.6002 41.9719 63.6852 41.9689 63.7703 41.9689C63.8554 41.9693 63.9407 41.9729 64.0262 41.979C64.1116 41.986 64.1972 41.9946 64.283 42.0067C64.3688 42.0187 64.4549 42.0337 64.541 42.051C64.6271 42.0684 64.7134 42.0882 64.7998 42.1106C64.8862 42.1329 64.9729 42.1577 65.0596 42.1847C65.1463 42.2117 65.233 42.241 65.32 42.2721C65.4069 42.3034 65.494 42.3367 65.5811 42.372C65.7554 42.4424 65.9302 42.5205 66.1052 42.6048C66.2802 42.6891 66.4554 42.7795 66.6309 42.8749C66.8064 42.9703 66.9821 43.0704 67.1579 43.174C67.3337 43.2777 67.5097 43.385 67.6856 43.4943C67.8614 43.6036 68.0372 43.7149 68.213 43.827C68.5645 44.0513 68.9157 44.2787 69.2655 44.498C69.4405 44.6077 69.615 44.7153 69.7892 44.8197C69.9634 44.924 70.1373 45.0249 70.3105 45.1212C70.4838 45.2175 70.6564 45.3091 70.8285 45.3946C71.0007 45.4801 71.1722 45.5594 71.343 45.6314C71.5138 45.7034 71.6839 45.7679 71.8531 45.8236C71.9377 45.8515 72.022 45.877 72.1062 45.9003C72.1903 45.9235 72.2743 45.9444 72.3581 45.9629C72.4418 45.9812 72.5253 45.9971 72.6086 46.0103C72.6919 46.0234 72.775 46.0337 72.8577 46.0413C72.9404 46.0492 73.0229 46.0533 73.1051 46.0549C73.1874 46.0569 73.2692 46.0552 73.3509 46.0499C73.4326 46.045 73.514 46.0371 73.5951 46.0258C73.6762 46.0145 73.7571 45.9999 73.8376 45.9815C73.918 45.9632 73.9982 45.9412 74.0781 45.9156C74.1579 45.8899 74.2374 45.8604 74.3166 45.8272C74.3958 45.794 74.4748 45.7569 74.5533 45.7156C74.6318 45.6743 74.7099 45.6289 74.7877 45.5794C74.8655 45.5298 74.943 45.4759 75.0201 45.4176C75.0972 45.3594 75.1738 45.2968 75.2501 45.2296C75.4583 45.046 75.6621 44.8732 75.8617 44.7109C76.0612 44.5486 76.2565 44.3968 76.4476 44.2547C76.6387 44.1126 76.8258 43.9804 77.0085 43.8575C77.1913 43.7347 77.3699 43.6215 77.5444 43.5169C77.719 43.4123 77.8894 43.3165 78.0559 43.2292C78.2224 43.1419 78.385 43.0628 78.5436 42.9917C78.7021 42.9206 78.8566 42.8572 79.0074 42.8013C79.1582 42.7454 79.3052 42.6969 79.4484 42.6552C79.5915 42.6136 79.7307 42.5789 79.8663 42.5505C80.0019 42.5221 80.1338 42.5001 80.262 42.4839C80.3902 42.4677 80.5149 42.4572 80.6358 42.4522C80.7245 42.4482 80.809 42.4502 80.8938 42.4528C80.9206 42.3606 80.9454 42.2623 80.9663 42.1555C81.1543 41.1935 80.4961 40.7127 80.4961 40.7127L80.1202 40.1113L79.368 39.1493H78.0518L77.3935 40.2316L76.5474 39.7507L76.2654 39.8708L75.7013 39.5102L74.855 39.0291L74.197 38.7888L73.1628 39.3899L72.5987 38.6685L72.0345 39.0291L71.7524 38.0671L71.2825 37.9468H70.3422L69.4961 37.466L68.9319 37.3457L69.2141 36.2634L68.9319 34.9406L69.2141 33.7383V32.8964L69.026 32.2953V31.2131L68.1799 30.8522L66.9576 29.8902L66.2054 30.8522L65.9234 31.8142L65.5472 33.4978L64.513 33.3775L63.4788 33.6181L62.8208 34.3395L63.6669 35.1812L63.573 35.7826L62.7267 36.8646L62.2567 38.0671L61.9747 38.5482V39.6305L61.5985 40.7127V41.5544V42.2758L60.9405 43.2378L60.8773 43.5082Z" fill="black" stroke="black" stroke-width="0.7" stroke-linecap="round" stroke-linejoin="round"/>
</svg>
